<svg xmlns="http://www.w3.org/2000/svg" xmlns:xlink="http://www.w3.org/1999/xlink" version="1.1" width="1000" height="1000" viewBox="0 0 1000 1000" xml:space="preserve">
<defs>
</defs>
<rect x="0" y="0" width="100%" height="100%" fill="#ffffff"/>
<g transform="matrix(22.7273 0 0 22.7273 500.0005 500.0005)" id="870626">
<g style="" vector-effect="non-scaling-stroke">
		<g transform="matrix(1 0 0 1 -0.1331 0.0942)" id="Layer-2">
<path style="stroke: rgb(215,215,215); stroke-width: 1.1392; stroke-dasharray: none; stroke-linecap: butt; stroke-dashoffset: 0; stroke-linejoin: miter; stroke-miterlimit: 10; is-custom-font: none; font-file-url: none; fill: rgb(215,215,215); fill-rule: nonzero; opacity: 1;" transform=" translate(-19.8668, -20.0942)" d="M 1.35347 9.95383 C 1.35347 5.4562 4.99953 1.81014 9.49717 1.81014 L 30.2365 1.81014 C 34.7341 1.81014 38.3802 5.4562 38.3802 9.95383 L 38.3802 30.2346 C 38.3802 34.7322 34.7341 38.3783 30.2365 38.3783 L 9.49717 38.3783 C 4.99953 38.3783 1.35347 34.7322 1.35347 30.2346 L 1.35347 9.95383 Z" stroke-linecap="round"/>
</g>
		<g transform="matrix(1 0 0 1 -8.1232 -8.2823)" id="Layer-3-copy">
<path style="stroke: rgb(49,36,129); stroke-width: 1.849; stroke-dasharray: none; stroke-linecap: butt; stroke-dashoffset: 0; stroke-linejoin: miter; stroke-miterlimit: 10; is-custom-font: none; font-file-url: none; fill: rgb(244,0,111); fill-rule: nonzero; opacity: 1;" transform=" translate(-11.8768, -11.7177)" d="M 5.97131 11.7224 C 5.96873 8.47782 8.61061 5.84543 11.8721 5.84283 C 15.1336 5.84023 17.7797 8.4684 17.7823 11.713 C 17.7849 14.9576 15.143 17.59 11.8815 17.5926 C 8.61997 17.5952 5.9739 14.967 5.97131 11.7224 Z" stroke-linecap="round"/>
</g>
		<g transform="matrix(1 0 0 1 7.7453 -8.8099)" id="Layer-3-copy">
<path style="stroke: rgb(49,36,129); stroke-width: 1.849; stroke-dasharray: none; stroke-linecap: butt; stroke-dashoffset: 0; stroke-linejoin: miter; stroke-miterlimit: 10; is-custom-font: none; font-file-url: none; fill: rgb(16,0,123); fill-rule: nonzero; opacity: 1;" transform=" translate(-27.7453, -11.1901)" d="M 21.9517 10.4589 L 33.5389 10.4589 L 33.5389 11.9214 L 21.9517 11.9214 L 21.9517 10.4589 Z" stroke-linecap="round"/>
</g>
		<g transform="matrix(1 0 0 1 -8.1052 8.7196)" id="Layer-3-copy">
<path style="stroke: rgb(49,36,129); stroke-width: 1.849; stroke-dasharray: none; stroke-linecap: butt; stroke-dashoffset: 0; stroke-linejoin: miter; stroke-miterlimit: 10; is-custom-font: none; font-file-url: none; fill: rgb(215,215,215); fill-rule: nonzero; opacity: 1;" transform=" translate(-11.8948, -28.7196)" d="M 5.9893 28.7243 C 5.98671 25.4797 8.62859 22.8473 11.8901 22.8447 C 15.1516 22.8421 17.7977 25.4702 17.8003 28.7149 C 17.8029 31.9595 15.161 34.5919 11.8995 34.5945 C 9.66594 34.5962 7.72102 33.3643 6.71606 31.5454 C 6.25354 30.7083 5.99012 29.7469 5.9893 28.7243 Z" stroke-linecap="round"/>
</g>
		<g transform="matrix(1 0 0 1 7.8906 8.8168)" id="Layer-3-copy">
<path style="stroke: rgb(49,36,129); stroke-width: 1.849; stroke-dasharray: none; stroke-linecap: butt; stroke-dashoffset: 0; stroke-linejoin: miter; stroke-miterlimit: 10; is-custom-font: none; font-file-url: none; fill: rgb(16,0,123); fill-rule: nonzero; opacity: 1;" transform=" translate(-27.8906, -28.8168)" d="M 22.097 28.1818 L 33.6842 28.1818 L 33.6842 29.4518 L 22.097 29.4518 L 22.097 28.1818 Z" stroke-linecap="round"/>
</g>
</g>
</g>
<g transform="matrix(1.1416 0 0 1.1416 312.5402 324.3198)" id="964275">
<g style="" vector-effect="non-scaling-stroke">
		<g transform="matrix(1 0 0 1 -24.4325 -54.5962)" id="_1">
<path style="stroke: none; stroke-width: 1; stroke-dasharray: none; stroke-linecap: butt; stroke-dashoffset: 0; stroke-linejoin: miter; stroke-miterlimit: 4; is-custom-font: none; font-file-url: none; fill: rgb(0,0,0); fill-rule: nonzero; opacity: 1;" transform=" translate(-231.5674, -201.4038)" d="M 102.59 341.42 a 15 15 0 0 1 -13.42 -8.28 a 187.41 187.41 0 0 1 35.11 -216.86 c 73.18 -73.19 192.26 -73.19 265.44 0 a 15 15 0 0 1 -21.21 21.21 C 307 76 207 76 145.49 137.49 A 157.45 157.45 0 0 0 116 319.69 a 15 15 0 0 1 -13.4 21.73 Z" stroke-linecap="round"/>
</g>
		<g transform="matrix(1 0 0 1 26.3118 40.5951)" id="_1">
<path style="stroke: none; stroke-width: 1; stroke-dasharray: none; stroke-linecap: butt; stroke-dashoffset: 0; stroke-linejoin: miter; stroke-miterlimit: 4; is-custom-font: none; font-file-url: none; fill: rgb(0,0,0); fill-rule: nonzero; opacity: 1;" transform=" translate(-282.3118, -296.5951)" d="M 257 436.61 a 187.1 187.1 0 0 1 -132.72 -54.88 a 15 15 0 1 1 21.21 -21.22 C 207 422 307 422 368.51 360.51 A 157.45 157.45 0 0 0 398 178.31 a 15 15 0 0 1 26.82 -13.45 A 187.62 187.62 0 0 1 257 436.61 Z" stroke-linecap="round"/>
</g>
		<g transform="matrix(1 0 0 1 91.1974 -157.79)" id="_1">
<path style="stroke: none; stroke-width: 1; stroke-dasharray: none; stroke-linecap: butt; stroke-dashoffset: 0; stroke-linejoin: miter; stroke-miterlimit: 4; is-custom-font: none; font-file-url: none; fill: rgb(0,0,0); fill-rule: nonzero; opacity: 1;" transform=" translate(-347.1974, -98.2099)" d="M 315.21 148.25 a 15 15 0 0 1 -1.47 -29.92 l 47.43 -4.73 l -9.51 -47.67 a 15 15 0 0 1 29.42 -5.86 L 393.82 124 a 15 15 0 0 1 -13.22 17.86 l -63.88 6.37 C 316.21 148.23 315.71 148.25 315.21 148.25 Z" stroke-linecap="round"/>
</g>
		<g transform="matrix(1 0 0 1 -89.1692 143.8719)" id="_1">
<path style="stroke: none; stroke-width: 1; stroke-dasharray: none; stroke-linecap: butt; stroke-dashoffset: 0; stroke-linejoin: miter; stroke-miterlimit: 4; is-custom-font: none; font-file-url: none; fill: rgb(0,0,0); fill-rule: nonzero; opacity: 1;" transform=" translate(-166.8308, -399.8719)" d="M 147.61 450 a 15 15 0 0 1 -14.7 -12.07 l -12.74 -63.88 a 15 15 0 0 1 13.23 -17.86 l 63.88 -6.37 a 15 15 0 0 1 3 29.85 l -47.43 4.73 l 9.5 47.67 A 15 15 0 0 1 147.61 450 Z" stroke-linecap="round"/>
</g>
</g>
</g>
</svg>